<svg xmlns="http://www.w3.org/2000/svg" xmlns:xlink="http://www.w3.org/1999/xlink" id="Layer_1" x="0px" y="0px" viewBox="0 0 130 70" style="enable-background:new 0 0 130 70;" xml:space="preserve"><style type="text/css">	.st0{fill:url(#SVGID_1_);}	.st1{fill:url(#Path_1520_2_);}	.st2{fill:#007BFF;}</style><g>	<g>					<linearGradient id="SVGID_1_" gradientUnits="userSpaceOnUse" x1="26.6873" y1="-839.0588" x2="81.2057" y2="-826.2993" gradientTransform="matrix(1 0 0 1 0 860)">			<stop offset="0" style="stop-color:#58AAFF"></stop>			<stop offset="0.2854" style="stop-color:#348FEF"></stop>			<stop offset="0.5704" style="stop-color:#187AE3"></stop>			<stop offset="0.8179" style="stop-color:#066EDC"></stop>			<stop offset="1" style="stop-color:#0069D9"></stop>		</linearGradient>		<path class="st0" d="M81.3,12.1L81.3,12.1C81.3,12.1,81.3,12.1,81.3,12.1l0.1,0c0,0,0,0,0,0c0,0,0.1,0.1,0.1,0.1   c0.3,0.2,0.5,0.5,0.7,0.9c0,0.1,0.1,0.1,0.1,0.2c0.1,0.1,0.1,0.2,0.1,0.2c0,0.1,0.1,0.2,0.1,0.3c0,0.1,0.1,0.2,0.1,0.3   c0.1,0.1,0.1,0.2,0.1,0.3c0,0.1,0.1,0.1,0.1,0.2c0,0.1,0.1,0.1,0.1,0.2c0,0.1,0,0.1,0.1,0.2c0,0.1,0.1,0.1,0.1,0.2   c0.1,0.2,0.1,0.4,0.2,0.7c0,0.1,0.1,0.2,0.1,0.2c0.1,0.2,0.1,0.4,0.1,0.5c0,0.1,0.1,0.2,0.1,0.3c0.1,0.3,0.1,0.6,0.2,0.9   c0.1,0.2,0.1,0.4,0.1,0.7c0,0.1,0.1,0.2,0.1,0.4c0.1,0.5,0.2,1,0.3,1.5c0,0.2,0.1,0.3,0.1,0.5c0,0.2,0.1,0.4,0.1,0.5   c0.1,0.3,0.1,0.7,0.2,1.1l-0.1,0.1l-7.7,10.7L68,44.8c-0.9,1.2-2.3,1.9-3.9,1.9H50.4c-0.4,0-0.7,0-1.1,0c-0.1,0-0.3,0-0.4,0   c0,0-0.1,0-0.1,0h-0.9c-0.5,0-1.1-0.1-1.6-0.1h-0.1c-11.6-0.1-16.1-9.1-16.2-9.4c-0.3-0.5-0.6-1.1-0.9-1.6   c-0.1-0.3-0.2-0.5-0.4-0.8c-0.5-1.3-0.8-2.7-1-4.1c0-0.4-0.1-0.8-0.1-1.2c0-1.6,0.3-3.2,0.8-4.8c0.2-0.6,0.4-1.1,0.7-1.7   c1.6-3.1,4-5.6,6.8-7.4l0,0c0.2-0.2,1.8-1.3,4.7-2.2c2-0.6,4.7-1.2,7.9-1.2h22.1l-1.5,1.9l-4,5.2l-0.6,0.8l-14.3,0   c-1.7,0-3.2,0.3-4.2,0.6c-0.1,0-0.2,0.1-0.2,0.1c-0.8,0.3-1.5,0.6-2.2,1l0,0c-1.5,1-2.8,2.3-3.6,3.9c-0.1,0.3-0.3,0.6-0.4,0.9   c-0.3,0.8-0.4,1.7-0.4,2.5c0,0.2,0,0.4,0,0.6c0.1,0.8,0.2,1.5,0.5,2.2c0.1,0.1,0.1,0.3,0.2,0.4c0.1,0.3,0.3,0.6,0.5,0.9   c0.1,0.2,2.5,4.9,8.6,5h0c0.3,0,0.5,0.1,0.8,0.1h0.5c0,0,0.1,0,0.1,0h0.2c0.2,0,0.4,0,0.6,0h7.3c0.8,0,1.6-0.4,2-1l4.6-6.1l3.6-5   l0.2-0.2l6.4-8.4l1.4-1.9c0,0,0,0,0,0c0.9-1.2,1.9-2.3,3.1-3.2c0.2-0.1,0.4-0.3,0.5-0.4C80.7,12.3,81,12.2,81.3,12.1   C81.2,12.1,81.3,12.1,81.3,12.1z"></path>					<linearGradient id="Path_1520_2_" gradientUnits="userSpaceOnUse" x1="83.2199" y1="-251.3841" x2="99.3113" y2="-282.987" gradientTransform="matrix(1 0 0 -1 0 -236)">			<stop offset="0" style="stop-color:#58AAFF"></stop>			<stop offset="0.1126" style="stop-color:#4BA0F9"></stop>			<stop offset="0.5036" style="stop-color:#2282E8"></stop>			<stop offset="0.8129" style="stop-color:#0970DD"></stop>			<stop offset="1" style="stop-color:#0069D9"></stop>		</linearGradient>		<path id="Path_1520_1_" class="st1" d="M99.3,46.8H88l-0.2-1.3l-2.5-17l0-0.2l-0.8-5.2l-0.1-0.5c-1.3-10.1-3.2-10.5-3.2-10.5h10.6   c0.5,0,0.9,0.3,1.2,0.7c0.4,0.5,0.7,1.1,0.9,1.8c0.3,0.7,0.5,1.4,0.7,2.2c0.2,0.8,0.4,1.4,0.5,1.9L99.3,46.8z"></path>	</g>	<g>		<path class="st2" d="M12.8,54.9l0.9-4.2h1l-1.3,5.6h-0.9l-1.1-4.1l-1.1,4.1H9.3l-1.3-5.6h1l0.9,4.2l1.1-4.2h0.8L12.8,54.9z"></path>		<path class="st2" d="M15,54.1c0-0.3,0-0.6,0.1-0.8c0.1-0.3,0.2-0.5,0.4-0.7c0.2-0.2,0.4-0.3,0.6-0.4c0.2-0.1,0.5-0.2,0.8-0.2   c0.3,0,0.6,0.1,0.8,0.2c0.2,0.1,0.4,0.3,0.6,0.4c0.2,0.2,0.3,0.4,0.4,0.7c0.1,0.3,0.1,0.5,0.1,0.8v0.1c0,0.3,0,0.6-0.1,0.8   c-0.1,0.3-0.2,0.5-0.4,0.7c-0.2,0.2-0.4,0.3-0.6,0.4c-0.2,0.1-0.5,0.2-0.8,0.2c-0.3,0-0.6-0.1-0.8-0.2c-0.2-0.1-0.4-0.3-0.6-0.4   c-0.2-0.2-0.3-0.4-0.4-0.7C15,54.8,15,54.5,15,54.1L15,54.1z M15.9,54.2c0,0.2,0,0.4,0.1,0.5c0,0.2,0.1,0.3,0.2,0.4   c0.1,0.1,0.2,0.2,0.3,0.3c0.1,0.1,0.3,0.1,0.5,0.1c0.2,0,0.3,0,0.4-0.1c0.1-0.1,0.2-0.2,0.3-0.3c0.1-0.1,0.1-0.3,0.2-0.4   c0-0.2,0.1-0.3,0.1-0.5v-0.1c0-0.2,0-0.4-0.1-0.5c0-0.2-0.1-0.3-0.2-0.4c-0.1-0.1-0.2-0.2-0.3-0.3c-0.1-0.1-0.3-0.1-0.5-0.1   c-0.2,0-0.3,0-0.4,0.1c-0.1,0.1-0.2,0.2-0.3,0.3c-0.1,0.1-0.1,0.3-0.2,0.4C15.9,53.8,15.9,53.9,15.9,54.2L15.9,54.2z"></path>		<path class="st2" d="M21.8,52.9c-0.1,0-0.1,0-0.2,0c-0.1,0-0.1,0-0.2,0c-0.2,0-0.4,0-0.5,0.1c-0.1,0.1-0.2,0.2-0.3,0.4v2.8h-0.9   v-4.2h0.9l0,0.5c0.1-0.2,0.2-0.3,0.4-0.4c0.2-0.1,0.3-0.1,0.5-0.1c0.1,0,0.1,0,0.2,0c0.1,0,0.1,0,0.1,0L21.8,52.9z"></path>		<path class="st2" d="M23.7,54.5l-0.4,0.4v1.4h-0.9v-5.9h0.9v3.4l0.3-0.4l1.1-1.3h1.1l-1.5,1.7l1.7,2.4H25L23.7,54.5z"></path>		<path class="st2" d="M26.8,56.2v-3.5h-0.6v-0.7h0.6v-0.4c0-0.2,0-0.4,0.1-0.6c0.1-0.2,0.2-0.3,0.3-0.4c0.1-0.1,0.3-0.2,0.5-0.3   c0.2-0.1,0.4-0.1,0.6-0.1c0.1,0,0.2,0,0.3,0c0.1,0,0.2,0,0.3,0l0,0.7c-0.1,0-0.1,0-0.2,0c-0.1,0-0.1,0-0.2,0   c-0.2,0-0.4,0.1-0.5,0.2s-0.2,0.3-0.2,0.5v0.4h0.8v0.7h-0.8v3.5H26.8z"></path>		<path class="st2" d="M29.1,54.1c0-0.3,0-0.6,0.1-0.8c0.1-0.3,0.2-0.5,0.4-0.7c0.2-0.2,0.4-0.3,0.6-0.4c0.2-0.1,0.5-0.2,0.8-0.2   c0.3,0,0.6,0.1,0.8,0.2c0.2,0.1,0.4,0.3,0.6,0.4c0.2,0.2,0.3,0.4,0.4,0.7c0.1,0.3,0.1,0.5,0.1,0.8v0.1c0,0.3,0,0.6-0.1,0.8   c-0.1,0.3-0.2,0.5-0.4,0.7c-0.2,0.2-0.4,0.3-0.6,0.4c-0.2,0.1-0.5,0.2-0.8,0.2c-0.3,0-0.6-0.1-0.8-0.2c-0.2-0.1-0.4-0.3-0.6-0.4   c-0.2-0.2-0.3-0.4-0.4-0.7C29.1,54.8,29.1,54.5,29.1,54.1L29.1,54.1z M30,54.2c0,0.2,0,0.4,0.1,0.5c0,0.2,0.1,0.3,0.2,0.4   c0.1,0.1,0.2,0.2,0.3,0.3c0.1,0.1,0.3,0.1,0.5,0.1c0.2,0,0.3,0,0.4-0.1c0.1-0.1,0.2-0.2,0.3-0.3c0.1-0.1,0.1-0.3,0.2-0.4   c0-0.2,0.1-0.3,0.1-0.5v-0.1c0-0.2,0-0.4-0.1-0.5c0-0.2-0.1-0.3-0.2-0.4c-0.1-0.1-0.2-0.2-0.3-0.3c-0.1-0.1-0.3-0.1-0.5-0.1   c-0.2,0-0.3,0-0.4,0.1c-0.1,0.1-0.2,0.2-0.3,0.3c-0.1,0.1-0.1,0.3-0.2,0.4C30,53.8,30,53.9,30,54.2L30,54.2z"></path>		<path class="st2" d="M35.9,52.9c-0.1,0-0.1,0-0.2,0c-0.1,0-0.1,0-0.2,0c-0.2,0-0.4,0-0.5,0.1c-0.1,0.1-0.2,0.2-0.3,0.4v2.8h-0.9   v-4.2h0.9l0,0.5c0.1-0.2,0.2-0.3,0.4-0.4c0.2-0.1,0.3-0.1,0.5-0.1c0.1,0,0.1,0,0.2,0c0.1,0,0.1,0,0.1,0L35.9,52.9z"></path>		<path class="st2" d="M38.1,55.6c0.1,0,0.2,0,0.3-0.1c0.1,0,0.2-0.1,0.3-0.1c0.1-0.1,0.1-0.1,0.2-0.2c0-0.1,0.1-0.2,0.1-0.3h0.9   c0,0.2-0.1,0.4-0.1,0.6c-0.1,0.2-0.2,0.3-0.4,0.5c-0.2,0.1-0.3,0.2-0.5,0.3c-0.2,0.1-0.4,0.1-0.6,0.1c-0.3,0-0.6-0.1-0.8-0.2   c-0.2-0.1-0.4-0.3-0.6-0.4s-0.3-0.4-0.4-0.7c-0.1-0.3-0.1-0.5-0.1-0.8v-0.1c0-0.3,0-0.6,0.1-0.8c0.1-0.3,0.2-0.5,0.4-0.7   c0.2-0.2,0.4-0.3,0.6-0.5c0.2-0.1,0.5-0.2,0.8-0.2c0.3,0,0.5,0,0.7,0.1c0.2,0.1,0.4,0.2,0.5,0.3c0.1,0.1,0.3,0.3,0.3,0.5   c0.1,0.2,0.1,0.4,0.1,0.6H39c0-0.1,0-0.2-0.1-0.3c0-0.1-0.1-0.2-0.2-0.3c-0.1-0.1-0.2-0.1-0.3-0.2c-0.1,0-0.2-0.1-0.3-0.1   c-0.2,0-0.3,0-0.5,0.1c-0.1,0.1-0.2,0.2-0.3,0.3c-0.1,0.1-0.1,0.3-0.1,0.4c0,0.2,0,0.3,0,0.5v0.1c0,0.2,0,0.3,0,0.5   c0,0.2,0.1,0.3,0.1,0.4c0.1,0.1,0.2,0.2,0.3,0.3C37.8,55.5,37.9,55.6,38.1,55.6z"></path>		<path class="st2" d="M42.4,56.3c-0.3,0-0.6-0.1-0.8-0.2c-0.2-0.1-0.5-0.2-0.6-0.4c-0.2-0.2-0.3-0.4-0.4-0.6   c-0.1-0.2-0.1-0.5-0.1-0.8v-0.2c0-0.3,0-0.6,0.1-0.9s0.2-0.5,0.4-0.7c0.2-0.2,0.4-0.3,0.6-0.4c0.2-0.1,0.5-0.2,0.7-0.2   c0.3,0,0.6,0.1,0.8,0.2c0.2,0.1,0.4,0.2,0.6,0.4c0.1,0.2,0.3,0.4,0.3,0.6c0.1,0.3,0.1,0.5,0.1,0.8v0.4h-2.7c0,0.2,0,0.3,0.1,0.4   c0.1,0.1,0.1,0.3,0.2,0.4c0.1,0.1,0.2,0.2,0.3,0.2c0.1,0.1,0.3,0.1,0.4,0.1c0.2,0,0.4,0,0.6-0.1c0.2-0.1,0.3-0.2,0.4-0.4l0.5,0.5   c-0.1,0.1-0.1,0.2-0.2,0.3c-0.1,0.1-0.2,0.2-0.3,0.2s-0.3,0.1-0.4,0.2S42.6,56.3,42.4,56.3z M42.3,52.8c-0.3,0-0.5,0.1-0.6,0.3   c-0.2,0.2-0.3,0.4-0.3,0.7h1.8v-0.1c0-0.1,0-0.2-0.1-0.4c0-0.1-0.1-0.2-0.1-0.3c-0.1-0.1-0.2-0.2-0.3-0.2   C42.5,52.8,42.4,52.8,42.3,52.8z"></path>		<path class="st2" d="M48.1,50.7l1.6,4.3l1.6-4.3h1.3v5.6h-1v-1.8l0.1-2.5L50,56.2h-0.7l-1.6-4.3l0.1,2.5v1.8h-1v-5.6H48.1z"></path>		<path class="st2" d="M56.1,56.2c0,0,0-0.1-0.1-0.2c0-0.1,0-0.1,0-0.2c-0.1,0.1-0.1,0.1-0.2,0.2c-0.1,0.1-0.2,0.1-0.2,0.1   c-0.1,0-0.2,0.1-0.3,0.1s-0.2,0-0.3,0c-0.2,0-0.4,0-0.6-0.1c-0.2-0.1-0.3-0.1-0.4-0.3c-0.1-0.1-0.2-0.2-0.3-0.4   c-0.1-0.2-0.1-0.3-0.1-0.5c0-0.2,0-0.4,0.1-0.6c0.1-0.2,0.2-0.3,0.4-0.4c0.2-0.1,0.4-0.2,0.6-0.3s0.5-0.1,0.8-0.1h0.6v-0.3   c0-0.2-0.1-0.4-0.2-0.5c-0.1-0.1-0.3-0.2-0.5-0.2c-0.1,0-0.2,0-0.3,0c-0.1,0-0.2,0.1-0.2,0.1c-0.1,0.1-0.1,0.1-0.1,0.2   c0,0.1-0.1,0.1-0.1,0.2h-0.9c0-0.2,0-0.3,0.1-0.5c0.1-0.2,0.2-0.3,0.3-0.4c0.1-0.1,0.3-0.2,0.5-0.3C54.8,52,55,52,55.3,52   c0.2,0,0.4,0,0.6,0.1c0.2,0.1,0.4,0.1,0.5,0.3c0.1,0.1,0.3,0.3,0.3,0.4c0.1,0.2,0.1,0.4,0.1,0.6v1.8c0,0.4,0.1,0.7,0.2,0.9v0.1   H56.1z M55.1,55.6c0.1,0,0.2,0,0.3,0c0.1,0,0.2-0.1,0.3-0.1c0.1,0,0.1-0.1,0.2-0.2c0.1-0.1,0.1-0.1,0.1-0.2v-0.8h-0.5   c-0.3,0-0.6,0.1-0.8,0.2c-0.2,0.1-0.3,0.3-0.3,0.5c0,0.1,0,0.2,0,0.2c0,0.1,0.1,0.1,0.1,0.2c0.1,0.1,0.1,0.1,0.2,0.1   C54.8,55.6,54.9,55.6,55.1,55.6z"></path>		<path class="st2" d="M58.7,52.1l0,0.5c0.1-0.2,0.3-0.3,0.5-0.4c0.2-0.1,0.4-0.1,0.7-0.1c0.2,0,0.4,0,0.5,0.1   c0.2,0.1,0.3,0.1,0.4,0.3c0.1,0.1,0.2,0.3,0.3,0.5c0.1,0.2,0.1,0.4,0.1,0.7v2.7h-0.9v-2.7c0-0.1,0-0.3,0-0.4   c0-0.1-0.1-0.2-0.1-0.2c-0.1-0.1-0.1-0.1-0.2-0.1c-0.1,0-0.2,0-0.3,0c-0.2,0-0.4,0-0.5,0.1c-0.1,0.1-0.3,0.2-0.3,0.4v3h-0.9v-4.2   H58.7z"></path>		<path class="st2" d="M64.7,56.2c0,0,0-0.1-0.1-0.2c0-0.1,0-0.1,0-0.2c-0.1,0.1-0.1,0.1-0.2,0.2c-0.1,0.1-0.2,0.1-0.2,0.1   s-0.2,0.1-0.3,0.1s-0.2,0-0.3,0c-0.2,0-0.4,0-0.6-0.1c-0.2-0.1-0.3-0.1-0.4-0.3c-0.1-0.1-0.2-0.2-0.3-0.4   c-0.1-0.2-0.1-0.3-0.1-0.5c0-0.2,0-0.4,0.1-0.6c0.1-0.2,0.2-0.3,0.4-0.4c0.2-0.1,0.4-0.2,0.6-0.3c0.2-0.1,0.5-0.1,0.8-0.1h0.6   v-0.3c0-0.2-0.1-0.4-0.2-0.5c-0.1-0.1-0.3-0.2-0.5-0.2c-0.1,0-0.2,0-0.3,0c-0.1,0-0.2,0.1-0.2,0.1c-0.1,0.1-0.1,0.1-0.1,0.2   c0,0.1-0.1,0.1-0.1,0.2h-0.9c0-0.2,0-0.3,0.1-0.5c0.1-0.2,0.2-0.3,0.3-0.4c0.1-0.1,0.3-0.2,0.5-0.3c0.2-0.1,0.4-0.1,0.7-0.1   c0.2,0,0.4,0,0.6,0.1c0.2,0.1,0.4,0.1,0.5,0.3c0.1,0.1,0.3,0.3,0.3,0.4c0.1,0.2,0.1,0.4,0.1,0.6v1.8c0,0.4,0.1,0.7,0.2,0.9v0.1   H64.7z M63.7,55.6c0.1,0,0.2,0,0.3,0c0.1,0,0.2-0.1,0.3-0.1c0.1,0,0.1-0.1,0.2-0.2c0.1-0.1,0.1-0.1,0.1-0.2v-0.8h-0.5   c-0.3,0-0.6,0.1-0.8,0.2C63.1,54.6,63,54.8,63,55c0,0.1,0,0.2,0,0.2c0,0.1,0.1,0.1,0.1,0.2c0.1,0.1,0.1,0.1,0.2,0.1   C63.5,55.6,63.6,55.6,63.7,55.6z"></path>		<path class="st2" d="M66.3,54.1c0-0.3,0-0.6,0.1-0.9c0.1-0.3,0.2-0.5,0.3-0.7s0.3-0.3,0.5-0.4S67.7,52,68,52c0.3,0,0.5,0,0.6,0.1   c0.2,0.1,0.3,0.2,0.5,0.4l0-0.4H70v4c0,0.3,0,0.5-0.1,0.7c-0.1,0.2-0.2,0.4-0.4,0.5c-0.2,0.1-0.4,0.3-0.6,0.3   c-0.2,0.1-0.5,0.1-0.8,0.1c-0.1,0-0.2,0-0.4,0c-0.1,0-0.3-0.1-0.4-0.1c-0.1-0.1-0.3-0.1-0.4-0.2c-0.1-0.1-0.2-0.2-0.3-0.3l0.4-0.6   c0.2,0.2,0.3,0.3,0.5,0.4c0.2,0.1,0.4,0.1,0.6,0.1c0.3,0,0.6-0.1,0.7-0.3c0.2-0.2,0.3-0.4,0.3-0.7v-0.3c-0.1,0.1-0.3,0.3-0.5,0.3   c-0.2,0.1-0.4,0.1-0.6,0.1c-0.3,0-0.5-0.1-0.7-0.2c-0.2-0.1-0.4-0.3-0.5-0.4c-0.1-0.2-0.3-0.4-0.3-0.7   C66.3,54.8,66.3,54.5,66.3,54.1L66.3,54.1z M67.2,54.2c0,0.2,0,0.4,0.1,0.5c0,0.2,0.1,0.3,0.2,0.4c0.1,0.1,0.2,0.2,0.3,0.3   c0.1,0.1,0.3,0.1,0.4,0.1c0.2,0,0.4,0,0.5-0.1c0.1-0.1,0.2-0.2,0.3-0.4v-1.8c-0.1-0.1-0.2-0.3-0.3-0.3s-0.3-0.1-0.5-0.1   c-0.2,0-0.3,0-0.4,0.1c-0.1,0.1-0.2,0.2-0.3,0.3s-0.1,0.3-0.2,0.4C67.2,53.8,67.2,53.9,67.2,54.2L67.2,54.2z"></path>		<path class="st2" d="M72.7,56.3c-0.3,0-0.6-0.1-0.8-0.2c-0.2-0.1-0.5-0.2-0.6-0.4c-0.2-0.2-0.3-0.4-0.4-0.6   c-0.1-0.2-0.1-0.5-0.1-0.8v-0.2c0-0.3,0-0.6,0.1-0.9c0.1-0.3,0.2-0.5,0.4-0.7c0.2-0.2,0.4-0.3,0.6-0.4c0.2-0.1,0.5-0.2,0.7-0.2   c0.3,0,0.6,0.1,0.8,0.2c0.2,0.1,0.4,0.2,0.6,0.4c0.1,0.2,0.3,0.4,0.3,0.6c0.1,0.3,0.1,0.5,0.1,0.8v0.4h-2.7c0,0.2,0,0.3,0.1,0.4   c0.1,0.1,0.1,0.3,0.2,0.4c0.1,0.1,0.2,0.2,0.3,0.2c0.1,0.1,0.3,0.1,0.4,0.1c0.2,0,0.4,0,0.6-0.1c0.2-0.1,0.3-0.2,0.4-0.4l0.5,0.5   c-0.1,0.1-0.1,0.2-0.2,0.3c-0.1,0.1-0.2,0.2-0.3,0.2c-0.1,0.1-0.3,0.1-0.4,0.2C73.1,56.3,73,56.3,72.7,56.3z M72.6,52.8   c-0.3,0-0.5,0.1-0.6,0.3c-0.2,0.2-0.3,0.4-0.3,0.7h1.8v-0.1c0-0.1,0-0.2-0.1-0.4s-0.1-0.2-0.1-0.3c-0.1-0.1-0.2-0.2-0.3-0.2   C72.9,52.8,72.8,52.8,72.6,52.8z"></path>		<path class="st2" d="M76,52.1l0,0.4c0.1-0.2,0.3-0.3,0.5-0.4c0.2-0.1,0.4-0.1,0.7-0.1c0.3,0,0.5,0.1,0.7,0.2   c0.2,0.1,0.4,0.3,0.5,0.5c0.1-0.2,0.3-0.3,0.5-0.5s0.5-0.2,0.8-0.2c0.2,0,0.4,0,0.6,0.1c0.2,0.1,0.3,0.1,0.4,0.3   c0.1,0.1,0.2,0.3,0.3,0.5C81,53,81,53.3,81,53.6v2.7h-0.9v-2.7c0-0.2,0-0.3-0.1-0.4c0-0.1-0.1-0.2-0.1-0.2   c-0.1-0.1-0.1-0.1-0.2-0.1c-0.1,0-0.2,0-0.3,0c-0.2,0-0.4,0.1-0.5,0.2c-0.1,0.1-0.2,0.3-0.3,0.4c0,0,0,0,0,0c0,0,0,0,0,0v2.8h-0.9   v-2.7c0-0.1,0-0.3-0.1-0.4c0-0.1-0.1-0.2-0.1-0.2c-0.1-0.1-0.1-0.1-0.2-0.1c-0.1,0-0.2,0-0.3,0c-0.2,0-0.4,0-0.5,0.1   c-0.1,0.1-0.2,0.2-0.3,0.3v3h-0.9v-4.2H76z"></path>		<path class="st2" d="M83.8,56.3c-0.3,0-0.6-0.1-0.8-0.2c-0.2-0.1-0.5-0.2-0.6-0.4c-0.2-0.2-0.3-0.4-0.4-0.6   c-0.1-0.2-0.1-0.5-0.1-0.8v-0.2c0-0.3,0-0.6,0.1-0.9c0.1-0.3,0.2-0.5,0.4-0.7c0.2-0.2,0.4-0.3,0.6-0.4c0.2-0.1,0.5-0.2,0.7-0.2   c0.3,0,0.6,0.1,0.8,0.2c0.2,0.1,0.4,0.2,0.6,0.4c0.1,0.2,0.3,0.4,0.3,0.6c0.1,0.3,0.1,0.5,0.1,0.8v0.4h-2.7c0,0.2,0,0.3,0.1,0.4   c0.1,0.1,0.1,0.3,0.2,0.4c0.1,0.1,0.2,0.2,0.3,0.2c0.1,0.1,0.3,0.1,0.4,0.1c0.2,0,0.4,0,0.6-0.1c0.2-0.1,0.3-0.2,0.4-0.4l0.5,0.5   c-0.1,0.1-0.1,0.2-0.2,0.3c-0.1,0.1-0.2,0.2-0.3,0.2c-0.1,0.1-0.3,0.1-0.4,0.2S84,56.3,83.8,56.3z M83.7,52.8   c-0.3,0-0.5,0.1-0.6,0.3c-0.2,0.2-0.3,0.4-0.3,0.7h1.8v-0.1c0-0.1,0-0.2-0.1-0.4s-0.1-0.2-0.1-0.3c-0.1-0.1-0.2-0.2-0.3-0.2   C84,52.8,83.8,52.8,83.7,52.8z"></path>		<path class="st2" d="M87.1,52.1l0,0.5c0.1-0.2,0.3-0.3,0.5-0.4c0.2-0.1,0.4-0.1,0.7-0.1c0.2,0,0.4,0,0.5,0.1   c0.2,0.1,0.3,0.1,0.4,0.3c0.1,0.1,0.2,0.3,0.3,0.5c0.1,0.2,0.1,0.4,0.1,0.7v2.7h-0.9v-2.7c0-0.1,0-0.3,0-0.4   c0-0.1-0.1-0.2-0.1-0.2c-0.1-0.1-0.1-0.1-0.2-0.1c-0.1,0-0.2,0-0.3,0c-0.2,0-0.4,0-0.5,0.1c-0.1,0.1-0.3,0.2-0.3,0.4v3h-0.9v-4.2   H87.1z"></path>		<path class="st2" d="M91.7,51.1v1h0.7v0.7h-0.7v2.3c0,0.1,0,0.2,0,0.2c0,0.1,0,0.1,0.1,0.1c0,0,0.1,0.1,0.1,0.1c0.1,0,0.1,0,0.2,0   s0.1,0,0.2,0c0.1,0,0.1,0,0.1,0v0.7c-0.1,0-0.2,0-0.3,0.1c-0.1,0-0.2,0-0.4,0c-0.2,0-0.3,0-0.4-0.1c-0.1,0-0.2-0.1-0.3-0.2   c-0.1-0.1-0.2-0.2-0.2-0.4c-0.1-0.1-0.1-0.3-0.1-0.5v-2.4h-0.7v-0.7h0.7v-1H91.7z"></path>		<path class="st2" d="M98.1,54.8c0-0.1,0-0.2,0-0.3c0-0.1-0.1-0.2-0.2-0.2c-0.1-0.1-0.2-0.1-0.4-0.2c-0.2-0.1-0.4-0.1-0.6-0.2   c-0.3-0.1-0.5-0.2-0.7-0.3s-0.4-0.2-0.6-0.4c-0.2-0.1-0.3-0.3-0.4-0.5c-0.1-0.2-0.1-0.4-0.1-0.6c0-0.2,0-0.4,0.1-0.6   c0.1-0.2,0.2-0.4,0.4-0.5c0.2-0.1,0.4-0.2,0.6-0.3c0.2-0.1,0.5-0.1,0.8-0.1c0.3,0,0.6,0,0.8,0.1c0.3,0.1,0.5,0.2,0.6,0.4   c0.2,0.2,0.3,0.3,0.4,0.5c0.1,0.2,0.1,0.4,0.1,0.7h-1c0-0.1,0-0.3-0.1-0.4c0-0.1-0.1-0.2-0.2-0.3c-0.1-0.1-0.2-0.1-0.3-0.2   c-0.1,0-0.3-0.1-0.5-0.1c-0.2,0-0.3,0-0.4,0.1c-0.1,0-0.2,0.1-0.3,0.2c-0.1,0.1-0.1,0.2-0.2,0.2c0,0.1-0.1,0.2-0.1,0.3   c0,0.2,0.1,0.4,0.3,0.5c0.2,0.1,0.5,0.3,0.9,0.4c0.3,0.1,0.6,0.2,0.8,0.3c0.2,0.1,0.4,0.2,0.6,0.4c0.2,0.1,0.3,0.3,0.3,0.5   c0.1,0.2,0.1,0.4,0.1,0.6c0,0.2,0,0.4-0.1,0.6c-0.1,0.2-0.2,0.3-0.4,0.5c-0.2,0.1-0.4,0.2-0.6,0.3c-0.2,0.1-0.5,0.1-0.8,0.1   c-0.3,0-0.5,0-0.8-0.1s-0.5-0.2-0.7-0.3c-0.2-0.1-0.4-0.3-0.5-0.5c-0.1-0.2-0.2-0.5-0.2-0.8h1c0,0.2,0,0.3,0.1,0.5   c0.1,0.1,0.1,0.2,0.3,0.3c0.1,0.1,0.2,0.1,0.4,0.2s0.3,0.1,0.5,0.1c0.3,0,0.6-0.1,0.8-0.2S98.1,55,98.1,54.8z"></path>		<path class="st2" d="M99.7,54.1c0-0.3,0-0.6,0.1-0.8c0.1-0.3,0.2-0.5,0.4-0.7c0.2-0.2,0.4-0.3,0.6-0.4c0.2-0.1,0.5-0.2,0.8-0.2   c0.3,0,0.6,0.1,0.8,0.2s0.4,0.3,0.6,0.4c0.2,0.2,0.3,0.4,0.4,0.7c0.1,0.3,0.1,0.5,0.1,0.8v0.1c0,0.3,0,0.6-0.1,0.8   c-0.1,0.3-0.2,0.5-0.4,0.7c-0.2,0.2-0.4,0.3-0.6,0.4c-0.2,0.1-0.5,0.2-0.8,0.2c-0.3,0-0.6-0.1-0.8-0.2c-0.2-0.1-0.4-0.3-0.6-0.4   c-0.2-0.2-0.3-0.4-0.4-0.7C99.7,54.8,99.7,54.5,99.7,54.1L99.7,54.1z M100.6,54.2c0,0.2,0,0.4,0.1,0.5c0,0.2,0.1,0.3,0.2,0.4   c0.1,0.1,0.2,0.2,0.3,0.3c0.1,0.1,0.3,0.1,0.5,0.1c0.2,0,0.3,0,0.4-0.1c0.1-0.1,0.2-0.2,0.3-0.3c0.1-0.1,0.1-0.3,0.2-0.4   c0-0.2,0.1-0.3,0.1-0.5v-0.1c0-0.2,0-0.4-0.1-0.5c0-0.2-0.1-0.3-0.2-0.4c-0.1-0.1-0.2-0.2-0.3-0.3c-0.1-0.1-0.3-0.1-0.5-0.1   c-0.2,0-0.3,0-0.4,0.1c-0.1,0.1-0.2,0.2-0.3,0.3c-0.1,0.1-0.1,0.3-0.2,0.4C100.6,53.8,100.6,53.9,100.6,54.2L100.6,54.2z"></path>		<path class="st2" d="M105.3,56.2h-0.9v-5.9h0.9V56.2z"></path>		<path class="st2" d="M108.9,55.8c-0.1,0.2-0.3,0.3-0.5,0.4s-0.4,0.1-0.7,0.1c-0.2,0-0.4,0-0.6-0.1c-0.2-0.1-0.3-0.1-0.4-0.3   c-0.1-0.1-0.2-0.3-0.3-0.5c-0.1-0.2-0.1-0.4-0.1-0.7v-2.7h0.9v2.7c0,0.2,0,0.3,0.1,0.4c0,0.1,0.1,0.2,0.1,0.2s0.1,0.1,0.2,0.1   c0.1,0,0.2,0,0.2,0c0.2,0,0.4,0,0.6-0.1c0.1-0.1,0.3-0.2,0.3-0.4v-3h0.9v4.2h-0.9L108.9,55.8z"></path>		<path class="st2" d="M111.9,51.1v1h0.7v0.7h-0.7v2.3c0,0.1,0,0.2,0,0.2c0,0.1,0,0.1,0.1,0.1c0,0,0.1,0.1,0.1,0.1   c0.1,0,0.1,0,0.2,0c0.1,0,0.1,0,0.2,0c0.1,0,0.1,0,0.1,0v0.7c-0.1,0-0.2,0-0.3,0.1c-0.1,0-0.2,0-0.4,0c-0.2,0-0.3,0-0.4-0.1   c-0.1,0-0.2-0.1-0.3-0.2c-0.1-0.1-0.2-0.2-0.2-0.4c-0.1-0.1-0.1-0.3-0.1-0.5v-2.4h-0.7v-0.7h0.7v-1H111.9z"></path>		<path class="st2" d="M113.3,51c0-0.1,0-0.3,0.1-0.4c0.1-0.1,0.2-0.1,0.4-0.1c0.2,0,0.3,0,0.4,0.1c0.1,0.1,0.1,0.2,0.1,0.4   c0,0.1,0,0.3-0.1,0.4c-0.1,0.1-0.2,0.1-0.4,0.1c-0.2,0-0.3,0-0.4-0.1C113.4,51.3,113.3,51.2,113.3,51z M114.3,56.2h-0.9v-4.2h0.9   V56.2z"></path>		<path class="st2" d="M115.2,54.1c0-0.3,0-0.6,0.1-0.8c0.1-0.3,0.2-0.5,0.4-0.7c0.2-0.2,0.4-0.3,0.6-0.4c0.2-0.1,0.5-0.2,0.8-0.2   c0.3,0,0.6,0.1,0.8,0.2s0.4,0.3,0.6,0.4c0.2,0.2,0.3,0.4,0.4,0.7c0.1,0.3,0.1,0.5,0.1,0.8v0.1c0,0.3,0,0.6-0.1,0.8   c-0.1,0.3-0.2,0.5-0.4,0.7c-0.2,0.2-0.4,0.3-0.6,0.4c-0.2,0.1-0.5,0.2-0.8,0.2c-0.3,0-0.6-0.1-0.8-0.2c-0.2-0.1-0.4-0.3-0.6-0.4   c-0.2-0.2-0.3-0.4-0.4-0.7C115.2,54.8,115.2,54.5,115.2,54.1L115.2,54.1z M116.1,54.2c0,0.2,0,0.4,0.1,0.5c0,0.2,0.1,0.3,0.2,0.4   c0.1,0.1,0.2,0.2,0.3,0.3c0.1,0.1,0.3,0.1,0.5,0.1c0.2,0,0.3,0,0.4-0.1c0.1-0.1,0.2-0.2,0.3-0.3c0.1-0.1,0.1-0.3,0.2-0.4   c0-0.2,0.1-0.3,0.1-0.5v-0.1c0-0.2,0-0.4-0.1-0.5c0-0.2-0.1-0.3-0.2-0.4c-0.1-0.1-0.2-0.2-0.3-0.3c-0.1-0.1-0.3-0.1-0.5-0.1   c-0.2,0-0.3,0-0.4,0.1c-0.1,0.1-0.2,0.2-0.3,0.3c-0.1,0.1-0.1,0.3-0.2,0.4C116.1,53.8,116.1,53.9,116.1,54.2L116.1,54.2z"></path>		<path class="st2" d="M120.7,52.1l0,0.5c0.1-0.2,0.3-0.3,0.5-0.4c0.2-0.1,0.4-0.1,0.7-0.1c0.2,0,0.4,0,0.5,0.1   c0.2,0.1,0.3,0.1,0.4,0.3c0.1,0.1,0.2,0.3,0.3,0.5c0.1,0.2,0.1,0.4,0.1,0.7v2.7h-0.9v-2.7c0-0.1,0-0.3,0-0.4   c0-0.1-0.1-0.2-0.1-0.2c-0.1-0.1-0.1-0.1-0.2-0.1s-0.2,0-0.3,0c-0.2,0-0.4,0-0.5,0.1c-0.1,0.1-0.3,0.2-0.3,0.4v3h-0.9v-4.2H120.7z   "></path>	</g></g></svg>